<svg width="313" height="92" viewBox="0 0 313 92" fill="none" xmlns="http://www.w3.org/2000/svg">
<g clip-path="url(#clip0_3_97)">
<path d="M300.295 91.6698H11.5351C5.11823 91.6698 0 86.6279 0 80.211V11.4587C0 5.04184 5.11823 0 11.5351 0H300.295C306.788 0 311.83 5.04184 311.83 11.4587V80.211C311.83 86.3988 306.788 91.6698 300.295 91.6698Z" fill="black"/>
<path d="M300.295 1.8334C305.642 1.8334 309.997 6.18771 309.997 11.4587V80.211C309.997 85.4821 305.642 89.8364 300.295 89.8364H11.5351C6.18771 89.8364 1.8334 85.4821 1.8334 80.211V11.4587C1.8334 6.18771 6.18771 1.8334 11.5351 1.8334H300.295ZM300.295 0H11.5351C5.11823 0 0 5.04184 0 11.4587V80.211C0 86.6279 5.11823 91.6698 11.5351 91.6698H300.295C306.788 91.6698 311.83 86.6279 311.83 80.211V11.4587C311.83 5.27101 306.788 0 300.295 0Z" fill="#A6A6A6"/>
<path opacity="0.12" d="M23.9869 74.0234C23.2994 73.3359 23.0703 72.19 23.0703 70.8149V71.0441C23.0703 72.4192 23.5286 73.565 24.2161 74.2526V74.0234H23.9869Z" fill="black"/>
<path d="M262.023 54.4671C262.252 54.6963 262.558 54.9254 262.863 55.1546C263.169 55.3838 263.474 55.5366 263.78 55.613C264.085 55.7657 264.391 55.8421 264.773 55.9185C265.155 55.9949 265.46 55.9949 265.842 55.9949C266.224 55.9949 266.606 55.9949 266.912 55.9185C267.294 55.8421 267.599 55.7657 267.905 55.613C268.211 55.4602 268.516 55.3074 268.822 55.1546C269.127 54.9254 269.356 54.6963 269.662 54.4671C269.891 54.2379 270.12 53.9323 270.349 53.6268C270.579 53.3212 270.731 53.0156 270.808 52.7101C270.961 52.4045 271.037 52.0226 271.113 51.717C271.19 51.335 271.19 51.0295 271.19 50.5711C271.19 49.8072 271.037 49.1197 270.808 48.4322C270.579 47.821 270.197 47.2099 269.662 46.6752C269.433 46.446 269.127 46.2168 268.822 45.9876C268.516 45.7585 268.211 45.6057 267.905 45.5293C267.599 45.3765 267.294 45.3001 266.912 45.2237C266.53 45.1473 266.224 45.1473 265.842 45.1473C265.46 45.1473 265.078 45.1473 264.773 45.2237C264.391 45.3001 264.085 45.3765 263.78 45.5293C263.474 45.6821 263.169 45.8349 262.863 45.9876C262.558 46.2168 262.328 46.446 262.023 46.6752C261.794 46.9043 261.564 47.2099 261.335 47.5155C261.106 47.821 260.953 48.1266 260.877 48.4322C260.724 48.7377 260.648 49.1197 260.571 49.4252C260.495 49.8072 260.495 50.1128 260.495 50.5711C260.495 50.9531 260.495 51.335 260.571 51.717C260.648 52.0989 260.724 52.4045 260.877 52.7101C261.03 53.0156 261.182 53.3212 261.335 53.6268C261.564 53.9323 261.794 54.2379 262.023 54.4671ZM242.467 54.4671C242.696 54.6963 243.001 54.9254 243.307 55.1546C243.612 55.3838 243.918 55.5366 244.224 55.613C244.529 55.7657 244.835 55.8421 245.217 55.9185C245.599 55.9949 245.904 55.9949 246.286 55.9949C246.668 55.9949 247.05 55.9949 247.356 55.9185C247.738 55.8421 248.043 55.7657 248.349 55.613C248.654 55.4602 248.96 55.3074 249.265 55.1546C249.571 54.9254 249.8 54.6963 250.106 54.4671C250.335 54.2379 250.564 53.9323 250.793 53.6268C251.022 53.3212 251.175 53.0156 251.252 52.7101C251.404 52.4045 251.481 52.0226 251.557 51.717C251.634 51.335 251.634 51.0295 251.634 50.5711C251.634 49.8072 251.481 49.1197 251.252 48.4322C251.022 47.821 250.64 47.2099 250.106 46.6752C249.877 46.446 249.571 46.2168 249.265 45.9876C248.96 45.7585 248.654 45.6057 248.349 45.5293C248.043 45.3765 247.738 45.3001 247.356 45.2237C246.974 45.1473 246.668 45.1473 246.286 45.1473C245.904 45.1473 245.522 45.1473 245.217 45.2237C244.835 45.3001 244.529 45.3765 244.224 45.5293C243.918 45.6821 243.612 45.8349 243.307 45.9876C243.001 46.2168 242.772 46.446 242.467 46.6752C242.237 46.9043 242.008 47.2099 241.779 47.5155C241.55 47.821 241.397 48.1266 241.321 48.4322C241.168 48.7377 241.092 49.1197 241.015 49.4252C240.939 49.8072 240.939 50.1128 240.939 50.5711C240.939 50.9531 240.939 51.335 241.015 51.717C241.092 52.0989 241.168 52.4045 241.321 52.7101C241.473 53.0156 241.626 53.3212 241.779 53.6268C241.932 53.9323 242.161 54.2379 242.467 54.4671ZM246.363 41.5569C247.585 41.5569 248.731 41.7861 249.8 42.2444C250.87 42.7028 251.863 43.3139 252.703 44.2306C253.161 44.689 253.543 45.1473 253.849 45.6057C254.154 46.064 254.46 46.5988 254.689 47.1335C254.918 47.6682 255.071 48.203 255.148 48.8141C255.224 49.4253 255.3 50.0364 255.3 50.6475C255.3 51.9462 255.071 53.092 254.613 54.1615C254.154 55.231 253.543 56.2241 252.627 57.0644C252.168 57.5227 251.71 57.9047 251.252 58.2103C250.793 58.5158 250.258 58.8214 249.724 59.0506C249.189 59.2798 248.654 59.4325 248.043 59.5853C247.432 59.6617 246.897 59.7381 246.21 59.7381C244.987 59.7381 243.842 59.5089 242.849 59.127C242.085 58.8214 241.321 58.363 240.71 57.7519L240.633 67.6064H236.814C236.814 59.0506 236.814 50.4183 236.89 41.8625H240.71V43.4667C240.862 43.3903 240.939 43.2375 241.092 43.1611C241.397 42.932 241.703 42.7028 242.085 42.4736C242.696 42.1681 243.307 41.9389 243.994 41.7097C244.911 41.6333 245.599 41.5569 246.363 41.5569ZM222.758 51.2586L228.64 51.1823L225.737 43.0848L222.758 51.2586ZM231.39 59.127L230.168 55.6894H221.153L219.702 59.6617H215.882C218.632 52.2517 221.306 44.7654 224.056 37.3554H227.188C229.938 44.7654 232.612 52.2517 235.362 59.6617H231.543L231.39 59.127ZM157.978 54.2379C158.207 54.4671 158.512 54.6963 158.742 54.9254C159.047 55.1546 159.353 55.3074 159.658 55.3838C159.964 55.5366 160.269 55.613 160.651 55.6894C160.957 55.7657 161.339 55.7657 161.721 55.7657C162.103 55.7657 162.485 55.7657 162.79 55.6894C163.096 55.613 163.478 55.5366 163.783 55.3838C164.089 55.231 164.395 55.0782 164.7 54.9254C165.006 54.6963 165.235 54.4671 165.54 54.2379C165.77 54.0087 165.999 53.7032 166.228 53.3976C166.381 53.092 166.61 52.7865 166.686 52.4809C166.839 52.1753 166.915 51.7934 166.992 51.4878C167.068 51.1059 167.068 50.7239 167.068 50.3419C167.068 49.578 166.915 48.8905 166.686 48.203C166.457 47.5919 166.075 46.9807 165.54 46.446C165.311 46.2168 165.006 45.9876 164.776 45.7585C164.471 45.5293 164.165 45.3765 163.86 45.3001C163.554 45.1473 163.249 45.0709 162.867 44.9945C162.561 44.9182 162.179 44.9182 161.797 44.9182C161.415 44.9182 161.033 44.9182 160.728 44.9945C160.422 45.0709 160.04 45.1473 159.735 45.3001C159.429 45.4529 159.123 45.6057 158.818 45.7585C158.512 45.9876 158.283 46.2168 158.054 46.446C157.825 46.6752 157.596 46.9807 157.366 47.2863C157.214 47.5919 156.985 47.8974 156.908 48.203C156.755 48.5085 156.679 48.8905 156.603 49.1961C156.526 49.578 156.526 49.96 156.526 50.3419C156.526 50.7239 156.526 51.1059 156.603 51.4878C156.679 51.8698 156.755 52.1753 156.908 52.4809C157.061 52.7865 157.214 53.092 157.366 53.3976C157.519 53.7032 157.748 54.0087 157.978 54.2379ZM167.832 41.5569H170.735V59.2034H166.992V57.5991C166.839 57.6755 166.763 57.8283 166.61 57.9047C166.304 58.1339 165.999 58.363 165.617 58.5922C165.006 58.8978 164.395 59.2034 163.707 59.3561C163.019 59.5089 162.332 59.5853 161.568 59.5853C160.957 59.5853 160.346 59.5089 159.811 59.4325C159.276 59.3561 158.665 59.127 158.13 58.8978C157.596 58.6686 157.137 58.3631 156.603 58.0575C156.144 57.7519 155.686 57.37 155.228 56.9116C154.769 56.4533 154.464 55.9949 154.082 55.5366C153.776 55.0782 153.471 54.5435 153.241 54.0087C153.012 53.474 152.859 52.8629 152.783 52.3281C152.707 51.717 152.63 51.1059 152.63 50.4947C152.63 49.1961 152.859 48.0502 153.241 46.9807C153.471 46.446 153.7 45.9112 154.082 45.4529C154.387 44.9945 154.769 44.4598 155.228 44.0778C156.068 43.1611 157.061 42.55 158.054 42.0917C159.123 41.6333 160.269 41.4041 161.492 41.4041C162.256 41.4041 162.943 41.4805 163.631 41.6333C164.318 41.7861 164.929 42.0153 165.54 42.3972C165.846 42.6264 166.228 42.7792 166.533 43.0848C166.686 43.1611 166.763 43.3139 166.915 43.3903V41.7861H167.832V41.5569ZM131.775 54.3143C132.005 54.5435 132.31 54.7727 132.616 55.0018C132.921 55.231 133.227 55.3838 133.532 55.4602C133.838 55.613 134.22 55.6894 134.525 55.7657C134.907 55.8421 135.213 55.8421 135.671 55.8421C136.053 55.8421 136.435 55.8421 136.817 55.7657C137.199 55.6894 137.505 55.613 137.81 55.4602C138.116 55.3074 138.421 55.1546 138.727 55.0018C139.033 54.7727 139.262 54.5435 139.567 54.3143C139.796 54.0851 140.102 53.7796 140.255 53.474C140.484 53.1684 140.637 52.8629 140.713 52.5573C140.866 52.2517 140.942 51.8698 141.019 51.5642C141.095 51.1823 141.095 50.8003 141.095 50.4183C141.095 49.6544 140.942 48.9669 140.713 48.2794C140.484 47.6682 140.026 47.0571 139.491 46.5224C139.262 46.2932 138.956 46.064 138.651 45.8348C138.345 45.6057 138.039 45.4529 137.734 45.3765C137.428 45.2237 137.046 45.1473 136.741 45.0709C136.359 44.9945 136.053 44.9945 135.595 44.9945C135.137 44.9945 134.831 44.9945 134.449 45.0709C134.067 45.1473 133.762 45.2237 133.456 45.3765C133.15 45.5293 132.845 45.6821 132.539 45.8348C132.234 46.064 132.005 46.2932 131.699 46.5224C131.47 46.7515 131.164 47.0571 131.011 47.3627C130.782 47.6682 130.629 47.9738 130.553 48.2794C130.4 48.5849 130.324 48.9669 130.248 49.2725C130.171 49.6544 130.171 50.0364 130.171 50.4183C130.171 50.8003 130.171 51.1823 130.248 51.5642C130.324 51.9462 130.4 52.2517 130.553 52.5573C130.706 52.8629 130.859 53.1684 131.011 53.474C131.317 53.7032 131.546 54.0087 131.775 54.3143ZM142.012 41.6333H144.991V59.2034H141.095V57.5991C140.942 57.7519 140.79 57.8283 140.713 57.9047C140.408 58.1339 140.026 58.363 139.72 58.5922C139.109 58.8978 138.421 59.2034 137.734 59.3561C137.046 59.5089 136.282 59.5853 135.519 59.5853C134.22 59.5853 133.074 59.3561 132.005 58.8978C131.47 58.6686 130.935 58.3631 130.477 58.0575C130.018 57.7519 129.484 57.37 129.102 56.9116C128.643 56.4533 128.261 55.9949 127.956 55.5366C127.65 55.0782 127.345 54.5435 127.115 54.0087C126.886 53.474 126.734 52.8629 126.581 52.3281C126.504 51.717 126.428 51.1059 126.428 50.4947C126.428 49.1961 126.657 48.0502 127.115 46.9807C127.345 46.446 127.65 45.9112 127.956 45.4529C128.261 44.9945 128.643 44.4598 129.102 44.0778C129.56 43.6195 130.018 43.2375 130.477 42.932C130.935 42.6264 131.47 42.3208 132.005 42.0917C132.539 41.8625 133.15 41.7097 133.685 41.5569C134.296 41.4805 134.907 41.4041 135.519 41.4041C137.123 41.4041 138.498 41.7097 139.72 42.3972C140.255 42.7028 140.713 43.0084 141.171 43.3903V41.7861H142.012V41.6333ZM280.204 46.8279C280.204 46.9043 280.204 47.0571 280.204 47.1335C280.204 47.2099 280.28 47.2863 280.28 47.3627C280.357 47.4391 280.433 47.5155 280.51 47.5919C280.586 47.6682 280.662 47.7446 280.815 47.821C280.968 47.8974 281.121 47.9738 281.273 48.0502C281.426 48.1266 281.655 48.203 281.808 48.2794C282.037 48.3558 282.19 48.4322 282.419 48.5086C282.648 48.5849 282.878 48.6613 283.107 48.6613C283.412 48.7377 283.642 48.8141 283.871 48.8141C284.1 48.8905 284.406 48.9669 284.635 48.9669L285.399 49.1961L286.163 49.4252C286.468 49.5016 286.697 49.578 287.003 49.7308C287.308 49.8072 287.538 49.96 287.767 50.1128C287.996 50.2656 288.225 50.4183 288.454 50.5711C288.683 50.7239 288.913 50.8767 289.142 51.1059C289.371 51.335 289.524 51.5642 289.753 51.7934C289.906 52.0226 290.058 52.2517 290.135 52.5573C290.211 52.7865 290.364 53.092 290.364 53.3976C290.44 53.7032 290.44 54.0087 290.44 54.3143C290.44 55.0782 290.288 55.8421 289.906 56.5297C289.753 56.8352 289.524 57.1408 289.218 57.4464C288.913 57.7519 288.607 57.9811 288.301 58.2103C287.919 58.4394 287.614 58.6686 287.156 58.8214C286.774 58.9742 286.315 59.127 285.933 59.2797C285.475 59.4325 285.017 59.5089 284.558 59.5089C284.1 59.5853 283.565 59.5853 283.03 59.5853C282.572 59.5853 282.114 59.5853 281.655 59.5089C281.197 59.4325 280.815 59.3561 280.357 59.2797C279.975 59.2034 279.516 59.0506 279.211 58.8978C278.829 58.745 278.447 58.5922 278.141 58.3631C277.836 58.2103 277.53 57.9811 277.225 57.7519C276.919 57.5227 276.69 57.2936 276.461 57.0644C276.232 56.8352 276.002 56.5297 275.85 56.3005C275.697 55.9949 275.468 55.6894 275.391 55.3838L275.086 54.6963L278.753 52.7865L279.134 53.7032C279.287 54.0087 279.44 54.3143 279.669 54.5435C279.898 54.7727 280.204 55.0018 280.51 55.231C280.891 55.4602 281.273 55.5366 281.732 55.6894C282.19 55.7657 282.648 55.8421 283.183 55.8421C283.412 55.8421 283.718 55.8421 283.947 55.8421C284.176 55.8421 284.406 55.7657 284.635 55.7657C284.864 55.6894 285.017 55.6894 285.169 55.613C285.322 55.5366 285.475 55.4602 285.628 55.3838C285.781 55.3074 285.857 55.231 285.933 55.1546C286.01 55.0782 286.086 55.0018 286.163 54.9254C286.239 54.849 286.239 54.6963 286.315 54.6199C286.315 54.4671 286.392 54.3907 286.392 54.2379C286.392 54.1615 286.392 54.0087 286.392 53.9323C286.392 53.856 286.315 53.7796 286.315 53.7032C286.239 53.6268 286.163 53.5504 286.086 53.474C286.01 53.3976 285.933 53.3212 285.781 53.2448C285.628 53.1684 285.475 53.092 285.322 53.0156C285.169 52.9393 284.94 52.8629 284.787 52.7865C284.558 52.7101 284.406 52.6337 284.176 52.5573C283.947 52.4809 283.718 52.4045 283.489 52.4045C283.183 52.3281 282.954 52.2517 282.725 52.2517C282.496 52.1753 282.19 52.0989 281.961 52.0226C281.732 51.9462 281.426 51.8698 281.197 51.7934L280.433 51.5642C280.128 51.4878 279.898 51.4114 279.593 51.2586C279.287 51.1823 279.058 51.0295 278.829 50.8767C278.6 50.7239 278.371 50.5711 278.141 50.4183C277.912 50.2656 277.683 50.1128 277.454 49.8836C277.225 49.6544 277.072 49.4253 276.843 49.1961C276.69 48.9669 276.537 48.7377 276.461 48.4322C276.384 48.203 276.232 47.8974 276.232 47.5919C276.155 47.2863 276.155 46.9807 276.155 46.6752C276.155 46.2932 276.232 45.9112 276.308 45.6057C276.384 45.2237 276.537 44.9182 276.69 44.6126C276.843 44.307 277.072 44.0015 277.301 43.6959C277.53 43.3903 277.836 43.1611 278.218 42.8556C278.523 42.6264 278.905 42.3972 279.287 42.1681C279.669 42.0153 280.051 41.8625 280.51 41.7097C280.891 41.5569 281.35 41.4805 281.808 41.4041C282.267 41.3278 282.725 41.3278 283.183 41.3278C283.565 41.3278 283.947 41.3278 284.329 41.4041C284.711 41.4805 285.093 41.4805 285.399 41.5569C285.781 41.6333 286.086 41.7097 286.468 41.8625C286.774 42.0153 287.156 42.1681 287.461 42.3208C287.767 42.4736 288.072 42.6264 288.301 42.8556C288.607 43.0848 288.836 43.2375 289.065 43.4667C289.295 43.6959 289.524 43.9251 289.677 44.1542C289.829 44.3834 290.058 44.689 290.211 44.9945L290.593 45.6821L286.926 47.5155L286.544 46.6752C286.392 46.3696 286.239 46.1404 286.086 45.9112C285.857 45.6821 285.628 45.5293 285.399 45.3765C285.093 45.2237 284.787 45.1473 284.405 45.0709C284.024 44.9945 283.642 44.9945 283.183 44.9945C282.725 44.9945 282.343 45.0709 282.037 45.1473C281.655 45.2237 281.35 45.3765 281.044 45.5293C280.891 45.6057 280.815 45.6821 280.739 45.7585C280.662 45.8349 280.586 45.9112 280.51 45.9876C280.433 46.064 280.433 46.1404 280.357 46.2932C280.204 46.5988 280.204 46.6752 280.204 46.8279ZM193.805 41.7861L199 54.0087L203.812 41.5569H207.938L206.41 45.6057L206.333 45.8348C205.111 49.1961 203.583 52.9393 202.132 56.6824C200.68 60.3492 199.153 64.0924 197.701 67.4536L197.625 67.6064H193.347L193.576 67.1481C194.111 66.0786 194.722 64.7035 195.333 63.2521C195.868 61.8771 196.479 60.502 196.937 59.4325L189.604 41.5569H193.729L193.805 41.7861ZM188.305 59.5853H185.326L180.742 53.5504L176.159 59.5853H171.423L178.374 50.4183L171.881 41.7861H176.617L180.742 47.2863L184.867 41.7861H188.076H189.451C187.541 44.7654 185.249 47.5919 183.11 50.4183L189.986 59.5853H188.305ZM146.748 58.745V37.1262H150.644V59.5853H146.748V58.745ZM124.747 48.0502V49.7308C124.747 51.1059 124.518 52.4045 123.983 53.7032C123.525 54.849 122.761 55.9949 121.844 56.8352C121.386 57.2936 120.851 57.6755 120.24 58.0575C119.705 58.4394 119.094 58.6686 118.407 58.8978C117.796 59.127 117.108 59.2798 116.344 59.4325C115.657 59.5089 114.893 59.5853 114.053 59.5853C113.212 59.5853 112.448 59.5089 111.684 59.3561C110.92 59.2034 110.233 59.0506 109.545 58.745C108.858 58.5158 108.247 58.1339 107.636 57.7519C107.024 57.37 106.49 56.9116 105.955 56.3769C105.42 55.8421 104.962 55.3074 104.58 54.6963C104.198 54.0851 103.816 53.474 103.587 52.8629C103.281 52.1753 103.129 51.5642 102.976 50.8003C102.823 50.1128 102.747 49.3489 102.747 48.5849C102.747 47.0571 103.052 45.6821 103.587 44.3834C103.892 43.6959 104.198 43.0848 104.58 42.55C104.962 41.9389 105.42 41.4041 105.955 40.8694C106.49 40.3347 107.101 39.8763 107.712 39.4944C108.323 39.1124 108.934 38.7304 109.622 38.5013C110.309 38.2721 110.997 38.0429 111.761 37.8901C112.525 37.7374 113.289 37.661 114.129 37.661C114.664 37.661 115.122 37.661 115.58 37.7374C116.039 37.8137 116.497 37.8901 117.032 38.0429C117.49 38.1957 117.948 38.3485 118.407 38.5013C118.865 38.6541 119.247 38.8832 119.705 39.1124C120.087 39.3416 120.546 39.5707 120.851 39.8763C121.233 40.1819 121.539 40.4874 121.921 40.793C122.226 41.0986 122.532 41.4805 122.838 41.7861C123.143 42.1681 123.372 42.55 123.601 42.932L123.983 43.6195L120.775 45.4529L120.393 44.689C120.087 44.1542 119.782 43.6959 119.324 43.2375C118.865 42.7792 118.407 42.3972 117.872 42.0917C117.337 41.7861 116.726 41.5569 116.115 41.4041C115.504 41.2514 114.893 41.175 114.205 41.175C113.059 41.175 112.066 41.3278 111.073 41.7097C110.157 42.0917 109.316 42.6264 108.629 43.3139C108.247 43.6959 107.941 44.0778 107.712 44.4598C107.406 44.8418 107.254 45.3001 107.025 45.7585C106.872 46.2168 106.719 46.6752 106.643 47.1335C106.566 47.5919 106.49 48.1266 106.49 48.6613C106.49 49.1961 106.566 49.7308 106.643 50.1892C106.719 50.6475 106.872 51.1823 107.025 51.5642C107.177 52.0226 107.406 52.4045 107.712 52.8629C108.018 53.2448 108.323 53.6268 108.629 54.0087C109.011 54.3907 109.393 54.6963 109.775 54.9254C110.157 55.231 110.615 55.3838 111.073 55.613C111.532 55.7657 111.99 55.9185 112.525 55.9949C113.059 56.0713 113.594 56.1477 114.129 56.1477C114.664 56.1477 115.122 56.1477 115.58 56.0713C116.039 55.9949 116.497 55.9185 116.879 55.7657C117.261 55.613 117.643 55.4602 118.025 55.3074C118.407 55.1546 118.712 54.9254 119.018 54.6963C119.324 54.4671 119.553 54.1615 119.858 53.9323C120.087 53.7032 120.24 53.3976 120.393 53.092V53.0156C120.546 52.7865 120.622 52.4045 120.775 52.0226C120.851 51.7934 120.928 51.4878 120.928 51.2586H113.136L113.059 47.4391H124.747C124.747 47.3627 124.747 48.0502 124.747 48.0502ZM265.995 41.5569C267.217 41.5569 268.363 41.7861 269.433 42.2444C270.502 42.7028 271.495 43.3139 272.336 44.2306C272.794 44.689 273.176 45.1473 273.482 45.6057C273.787 46.064 274.093 46.5988 274.322 47.1335C274.551 47.6682 274.704 48.203 274.78 48.8141C274.857 49.4253 274.933 50.0364 274.933 50.6475C274.933 51.9462 274.704 53.092 274.245 54.1615C273.787 55.231 273.176 56.2241 272.259 57.0644C271.801 57.5227 271.343 57.9047 270.884 58.2103C270.426 58.5158 269.891 58.8214 269.356 59.0506C268.822 59.2798 268.287 59.4325 267.676 59.5853C267.065 59.6617 266.53 59.7381 265.842 59.7381C264.62 59.7381 263.474 59.5089 262.481 59.127C261.717 58.8214 260.953 58.363 260.342 57.7519L260.266 67.6064H256.446C256.446 59.0506 256.446 50.4183 256.523 41.8625H260.342V43.4667C260.495 43.3903 260.571 43.2375 260.724 43.1611C261.03 42.932 261.335 42.7028 261.717 42.4736C262.328 42.1681 262.939 41.9389 263.627 41.7097C264.544 41.6333 265.231 41.5569 265.995 41.5569Z" fill="white"/>
<path d="M65.3147 39.036H56.2241V36.7443H65.3147V39.036ZM44.6126 36.7443H52.6337V39.036H44.689V56.8352C44.689 59.4325 46.8279 61.5715 49.4253 61.5715H66.6897C69.287 61.5715 71.426 59.4325 71.426 56.8352V39.036H68.9051V36.7443H71.5024C72.7247 36.7443 73.7177 37.7374 73.7177 38.9596V56.8352C73.7177 60.7312 70.5857 63.8632 66.6897 63.8632H49.5017C45.6057 63.8632 42.4736 60.7312 42.4736 56.8352V38.9596C42.4736 38.3485 42.7028 37.8137 43.0848 37.4318C43.4667 36.9734 44.0015 36.7443 44.6126 36.7443Z" fill="white"/>
<path d="M57.6755 27.8065H58.5158C62.4882 27.8065 65.6966 31.015 65.6966 34.9873L65.773 43.2376H63.4813L63.4049 34.9873C63.4049 32.3136 61.1895 30.0983 58.5158 30.0983H57.6755C55.0018 30.0983 52.7865 32.3136 52.7865 34.9873L52.8629 43.2376H50.5711L50.4183 34.9873C50.4183 31.015 53.7032 27.8065 57.6755 27.8065Z" fill="white"/>
</g>
<defs>
<clipPath id="clip0_3_97">
<rect width="312.441" height="91.6698" fill="white"/>
</clipPath>
</defs>
</svg>
